<?xml version="1.0" standalone="no"?>
<!DOCTYPE svg PUBLIC "-//W3C//DTD SVG 20010904//EN"
 "http://www.w3.org/TR/2001/REC-SVG-20010904/DTD/svg10.dtd">
<svg version="1.0" xmlns="http://www.w3.org/2000/svg"
 width="913.000000pt" height="268.000000pt" viewBox="0 0 913.000000 268.000000"
 preserveAspectRatio="xMidYMid meet">
<metadata>
Created by potrace 1.16, written by Peter Selinger 2001-2019
</metadata>
<g transform="translate(0.000000,268.000000) scale(0.100000,-0.100000)"
fill="#000000" stroke="none">
<path d="M2700 1330 c0 -1113 0 -1120 20 -1120 20 0 20 7 20 1120 0 1113 0
1120 -20 1120 -20 0 -20 -7 -20 -1120z"/>
<path d="M1005 2116 c-266 -61 -482 -255 -562 -503 -19 -59 -27 -107 -30 -199
-7 -154 11 -243 75 -374 39 -80 61 -109 137 -186 91 -93 145 -130 240 -169 47
-19 65 -36 165 -161 62 -76 116 -143 120 -147 4 -5 61 56 126 135 l119 144 98
47 c84 41 111 60 191 140 82 81 99 105 144 197 67 136 87 234 79 380 -11 198
-73 336 -217 481 -106 107 -183 156 -308 196 -97 31 -284 40 -377 19z m239
-397 l60 -29 21 20 21 20 47 -48 c47 -48 48 -48 27 -67 -26 -23 -26 -23 11
-73 l31 -42 35 25 c37 24 53 25 53 1 0 -12 -137 -126 -160 -134 -6 -2 -13 4
-16 13 -5 12 3 25 25 42 l31 24 -31 46 -32 45 -251 -251 -251 -251 -48 47 -47
48 250 250 251 251 -53 27 c-29 15 -67 27 -83 27 -40 0 -60 14 -51 35 9 24 83
12 160 -26z"/>
<path d="M1192 1517 c-146 -146 -152 -154 -134 -170 17 -16 25 -9 170 136 146
146 152 154 134 170 -17 16 -25 9 -170 -136z"/>
<path d="M3869 1927 c-159 -54 -239 -161 -239 -318 l0 -58 -67 -3 -68 -3 -3
-41 c-3 -35 1 -45 24 -63 15 -11 39 -21 55 -21 63 0 59 21 59 -360 0 -218 4
-350 10 -352 5 -1 41 -2 80 0 l70 4 0 353 0 354 175 3 175 3 0 -357 0 -358 85
0 85 0 -2 418 -3 417 -259 3 -259 2 6 65 c7 74 24 112 66 148 42 35 88 48 194
56 l92 6 0 55 c0 65 -6 68 -130 69 -58 0 -98 -6 -146 -22z"/>
<path d="M7900 1330 l0 -620 80 0 80 0 0 620 0 620 -80 0 -80 0 0 -620z"/>
<path d="M5481 1837 c-6 -8 -18 -72 -28 -144 l-17 -132 -70 -8 -71 -8 -3 -38
c-5 -55 10 -67 79 -67 l58 0 3 -302 c3 -336 3 -335 72 -396 42 -37 84 -46 174
-40 65 5 161 42 177 68 10 16 -43 100 -62 100 -9 0 -36 -9 -60 -21 -37 -18
-48 -19 -78 -9 -62 20 -65 36 -65 335 l0 265 125 0 125 0 0 60 0 60 -125 0
-125 0 0 145 0 145 -49 0 c-28 0 -53 -6 -60 -13z"/>
<path d="M7185 1572 c-33 -10 -78 -28 -100 -39 -45 -23 -124 -104 -148 -149
-50 -96 -63 -292 -27 -407 24 -77 89 -170 147 -210 98 -68 267 -87 399 -46 59
18 77 30 134 88 90 89 111 144 118 304 4 93 1 132 -13 184 -22 81 -80 169
-140 212 -100 72 -253 98 -370 63z m235 -142 c46 -23 84 -70 104 -128 23 -63
30 -178 16 -251 -26 -143 -96 -215 -218 -224 -109 -8 -190 39 -233 135 -21 47
-24 68 -24 178 0 121 1 127 33 192 34 69 60 93 127 115 52 17 144 9 195 -17z"/>
<path d="M8429 1567 c-99 -42 -149 -94 -169 -178 -15 -60 -7 -110 26 -166 31
-54 78 -81 228 -132 144 -49 176 -74 176 -137 0 -118 -163 -162 -308 -84 -76
41 -96 39 -128 -11 l-26 -41 27 -28 c74 -77 256 -112 393 -75 57 16 75 27 123
74 42 42 58 68 67 103 29 113 2 200 -79 254 -25 16 -93 45 -150 63 -162 52
-199 76 -199 135 0 44 30 81 85 102 57 21 124 14 204 -22 70 -31 95 -26 118
21 21 44 12 55 -81 103 -63 32 -81 36 -161 39 -77 3 -98 0 -146 -20z"/>
<path d="M6199 1561 c-110 -35 -174 -95 -232 -219 -31 -65 -32 -71 -32 -202 0
-135 0 -135 37 -213 72 -152 172 -216 349 -225 201 -9 322 63 406 244 26 55
28 67 28 194 0 126 -2 139 -27 193 -59 126 -138 200 -247 231 -74 22 -210 20
-282 -3z m261 -131 c88 -45 123 -129 123 -290 0 -160 -35 -245 -121 -289 -129
-65 -276 -16 -333 111 -21 47 -24 68 -24 178 0 109 3 131 23 175 36 77 80 116
157 136 45 12 131 1 175 -21z"/>
<path d="M4450 1564 c0 -3 34 -53 75 -111 41 -58 105 -149 141 -204 l67 -99
-68 -102 c-37 -57 -103 -153 -146 -214 -44 -62 -79 -115 -79 -118 0 -4 39 -5
87 -4 l86 3 116 169 c105 153 117 166 129 150 7 -11 58 -88 112 -171 l99 -153
91 0 c49 0 90 2 90 4 0 3 -64 101 -142 218 -79 117 -144 216 -146 220 -2 5 22
45 54 90 155 222 214 309 214 318 0 6 -33 10 -80 10 l-80 0 -35 -47 c-19 -27
-67 -98 -107 -160 -40 -62 -76 -111 -81 -110 -4 1 -53 72 -110 157 l-102 155
-92 3 c-51 1 -93 0 -93 -4z"/>
</g>
</svg>
